<svg xmlns="http://www.w3.org/2000/svg" width="1365.333" height="1365.333" version="1.0" viewBox="0 0 1024 1024"><path d="M541.5 28.6c-13 2.8-28.1 9.4-38.1 16.7-35 25.8-63.2 78.1-71.5 133-1.8 12.2-2.1 16.9-1.6 33.7.6 19.8 1.8 28.7 5.8 40 1 3 1.9 5.7 1.9 6s-3.5 1.2-7.7 1.9c-4.3.7-8.5 1.7-9.4 2.2-1.4.7-1.7-.4-2.2-8.9-2.4-36.5-17-75.8-41.5-111.7-11.4-16.7-17.3-23.8-31.6-38-39-38.8-84.5-60.1-113.1-53-9.1 2.3-11.8 3.7-18.3 9.9-5.9 5.6-9.8 12.5-12.8 22.6-3 10.6-2.6 35.7 1 52.5 12.2 58.1 50.5 116.7 100.5 154 10.4 7.8 25.1 17.1 29.6 18.9.6.2-2.6 4-7 8.5l-7.9 8.1-6.1-5.8c-12.1-11.7-23.3-19.6-39-27.4C225 268 161.8 262.6 113 278.2c-44.2 14.1-65.5 46.5-51 77.5 4 8.7 8.2 14.6 16.4 23.2 38.5 40.1 107.4 62.8 168.8 55.6 7-.8 14.6-1.9 17-2.4 2.3-.6 4.3-.9 4.4-.8s-.3 4.5-.8 9.8l-1.1 9.5-5 1.8c-10.7 3.8-21.5 18.3-22.5 30.2-.4 4.9-.7 5.5-3.1 6-12 2.8-24.2 18.3-27.3 34.6-1.2 6.5-1.3 6.7-4.6 7.3-4.1.8-12.3 8.1-15.9 14.2-2.9 5-5.3 13.2-5.3 18.4 0 3.1-.4 3.8-3 4.9-3.8 1.6-8.7 7.1-11.4 12.9-1.7 3.8-2.1 6.5-2 14.8 0 7.5-.3 10.3-1.2 10.3-2.3 0-7.2 5-9.5 9.7-1.7 3.5-2.4 7.2-2.8 14.2-.3 5.2-1.1 9.6-1.6 9.8-.6.2-1.1-.6-1.2-1.8-.3-3.7-4.2-14.3-7.7-20.4-4.3-7.8-10.3-12.5-15.9-12.5-6.1 0-9.7 2.7-16 12.3-10.6 15.9-15.2 28.5-13.3 36.1 2 8.2 13.1 13.4 26.3 12.3l6.8-.5-3.6 1.9c-5.1 2.5-17.6 5.9-22.2 5.9-8 0-14.6-5-16.8-12.7-.6-2.4-1.7-4.2-2.3-4-1.9.6-2.7 7.8-1.5 14 2.5 14.2 12.3 25 26.3 29.1l4.1 1.2-3.2 1.7c-3.9 2.1-8.9 2.1-12.3.2q-8.55-4.8-2.4 7.2c5.1 10.3 15.5 16.9 25.3 16 3.1-.2 6.5-.8 7.5-1.2 1.4-.6 1.7-.5 1.1.4-.4.7-2.3 1.9-4.1 2.7-6.6 2.8-2.5 5.7 8.1 5.8 8.7.1 16-3 23.4-9.9 5.2-4.8 10.6-14.1 11.7-20l.6-3.3 3.5 2.4c4.2 2.8 9.1 3.1 13.9.8s13.1-11.8 18.4-21c7-12.3 6.8-22.9-.7-28.2-3.7-2.7-12.6-5.2-18.1-5.2h-4.5l6.4-3.2c11.6-5.8 20.5-17.4 21.6-28.3.6-5.4.6-5.4 5.9-8 10-4.9 17.4-16.6 17.4-27.5 0-3.9.3-5 1.6-5 .9 0 4.7-1.6 8.6-3.7 11.6-6 18.2-16 19.4-29l.7-7.1 5.1-2.9c6.8-3.8 6.6-3.7 6.6-1.5 0 6 11.4 33.6 18.3 44.5 2.1 3.2 3.8 6.1 4 6.6.1.4-3.2 3.5-7.3 6.8-32.8 26.2-66.5 79.4-81.4 128.6-5.5 18.2-7.7 31.2-8.3 48.7-.6 17.7.7 26.2 5.6 36.6 7.9 16.9 23.5 24.5 41 20 29.4-7.5 65.2-38.6 92.4-80.1 9.4-14.4 20.8-36 26.6-50.5 4.6-11.6 10.9-31.2 12.5-38.6l.7-3.2 8.7 3.5c4.8 1.8 12.4 4.5 16.8 5.9l8.2 2.4-4.9 11c-2.7 6-6.9 17.9-9.4 26.5-22.7 79.1-13.5 156.5 22.7 190 21.1 19.6 47.8 17.6 70.8-5.4 8.8-8.8 15.4-18.5 22.1-32.6 13.1-27.4 19.1-58 18.8-96-.3-29.2-3.1-49.2-11-76.8-2.1-7.7-3.9-14-3.9-14.2 0-.1 1.9-.5 4.3-.9 5.7-.9 22.7-6 30.6-9.1 3.6-1.4 6.8-2.5 7.2-2.5.3 0 1 2.8 1.3 6.1 4.1 35.6 32.3 85.4 69.2 122.3 19.5 19.5 38.7 33.9 59.4 44.3 41.5 20.9 68.7 6.2 74-40.2 2-18.2.3-37.4-5.5-60.1-7.5-29.5-22.6-61.3-41.5-87.8-13.2-18.5-32.2-38.5-50-52.7-3.6-2.8-6.7-5.3-6.8-5.4-.2-.2 3-5.5 7.1-11.7 5.8-8.6 13-21.6 13.2-23.5 0-.1 2.5.5 5.5 1.3 6.8 1.8 13.1 1.8 19.8 0l5.2-1.3v2.4c0 1.3 1.1 4.8 2.5 7.8 2.9 6.1 9.4 12.1 17.7 16.3l5.3 2.7.2 6.5c.3 13.1 8.1 25.7 19.5 31.2l5.3 2.6-.3 4.5c-.8 10.1 5.2 21.3 13.7 25.7 2 1 6.7 4.9 10.4 8.7l6.8 6.9-5.1 1.2c-12.1 2.8-20.8 9.2-22.9 16.9-1.6 5.6-1.4 7.2 1.9 14.2 5.9 12.4 23.9 26.1 34.2 26.1 8 0 15.2-7.1 18.9-18.5l1.2-4 1 3c.5 1.6 1 8.2 1.1 14.5.1 10.5-.1 11.9-2.5 16.5-2.2 4.4-8.5 10.5-12.1 11.8-2.1.7 2.8 5.3 8.5 7.9 7.7 3.4 21 3.3 28.9-.4 12.6-5.8 20.7-17.6 21.6-31.1l.4-7.3 4.7-.3c13.3-.6 22.1-12 22.1-28.4-.1-3.9-.6-8.2-1.3-9.4-1.2-2.2-1.3-2.1-3.5 2-2.9 5.5-7.7 8.7-12.9 8.7-5.7 0-8.2-1.1-17.4-7.8l-7.9-5.7 5.9-1.2c23.7-4.8 29-18.4 16.5-42.3-7.1-13.6-14.6-21-21.2-21-9.6 0-18.6 10.5-25.7 30.2l-3.4 9.3-.1-5.5c-.1-6.6-2.8-13-7.2-17.2-3.1-2.9-3.3-3.3-2.9-9.3.6-13.2-4.1-24.5-11.8-28.5l-4.1-2v-7.8c0-14.4-5.3-24.8-14.8-29.4l-4.9-2.3-.5-7c-.5-7.1-2.6-12.5-8-21-3.4-5.5-12-14.7-15.1-16.4-2.4-1.3-2.4-1.4-2-12 .3-7.8.1-11.9-1.1-15.6-.8-2.7-1.4-5-1.3-5.1.1 0 3.6.3 7.7.7 11 1.1 39 1.1 53.7-.2 57.3-4.7 111.8-22.3 139.9-45.1 22.4-18.1 27.6-42.5 13.4-64.1-13.3-20.4-42-37.2-80.1-47.1-20.3-5.2-36.3-7-62.9-7.1-24.6 0-32.5.7-54.7 4.6-31.4 5.5-61.8 17.2-90.1 34.5-6.3 3.8-10.8 6.1-11 5.4-.2-.6-3.7-5.4-7.8-10.6s-7.4-9.7-7.4-9.9c0-.3.7-.5 1.5-.5 5.1 0 36.8-15.3 54.5-26.5 42.9-26.8 79.3-62.1 107-103.7 19.7-29.5 29-54.5 29.2-77.8.2-17.9-4.1-27.9-15.6-36.4-6.3-4.7-13-6.7-24.6-7.3-36.5-2-90.8 28.2-145.6 81-33.9 32.7-63.3 72.6-78.9 107.3l-4.1 9.1-9-3.4c-4.9-1.8-9.4-3.3-10.1-3.3s.7-2.8 3.1-6.3c19.4-28 36.7-73.4 43.6-114.6 6.6-38.9 4.2-71-6.8-91.5-6.6-12.3-19.8-22-33.1-24.6-5.2-1-16.6-1.2-20.6-.4m22.5 9.6c13.2 4 22.5 13.5 28 28.6 4.1 11.4 5.4 20.7 5.3 38.7-.2 46.6-16.2 101.4-41.9 143.5-9.7 15.8-7.4 14.5-19.5 11.5-5.7-1.4-11.6-2.5-13.1-2.5s-2.9-.3-3.1-.8c-.3-.4 1.8-4.8 4.6-9.7 6.2-11 19-38.3 26.3-56.1 18.4-44.9 28.7-85.9 28.2-112.5l-.1-10.4-.7 11c-2.3 37.3-15.8 82-41.8 138.5-7.2 15.6-17.9 37.8-18.6 38.7-.3.3-15.7-1.5-16.2-1.9-.3-.3 1.1-5.4 3-11.4 17.9-56.1 42.5-139.6 47.2-160.3 3.7-16.2 2.7-14.2-2.7 5.4-5.8 21.3-16.8 57.8-24.9 83-5.3 16.4-20 65.9-23.2 78l-1.4 5-7.3.3-7.4.3.7-12.3c2.6-46.7 12.9-99 26-132.1 8.8-22.2 17.9-41.6 24.1-51.3 4.8-7.4 3.5-6.8-1.6.8-5.8 8.5-18.7 35.5-24.8 52-14.3 38.8-24.2 86.8-25.8 125.5l-.6 16.3-4.1.1c-2.3.1-6.1.2-8.6.3l-4.5.1-.9-6.5c-.4-3.6-.9-18.2-.9-32.5-.2-27.7.8-38 5.8-61 4.6-21.4 13.9-48.3 22.7-65.9 2.2-4.3 3.7-8 3.5-8.2-.7-.8-12.5 25.1-17 37.6-11 30.1-16.3 56.9-17.4 87.5-.5 16 .7 39.9 2.3 47.1.5 1.9-.1 2.2-8.3 3.2-4.8.6-9.1.7-9.5.4-1.3-1.3-5.7-20.8-6.9-30.6-1.5-12.9-.6-36.8 2-51.6 7.1-40.3 25.7-79.7 50.3-106.4 21.9-23.8 51.6-35.8 72.8-29.4M265.5 61c22.2 6.9 52.3 26.3 74.6 48 21.9 21.2 43.9 54.5 56.3 85.2 6.6 16.5 12.7 41.2 14.1 56.8.3 4.1.8 8.9 1 10.6.4 2.9.2 3.1-4.9 4.7-2.9.9-5.5 1.7-5.8 1.7s-1.4-3.5-2.3-7.8C386.5 205.5 345.1 134.1 298 87c-5.2-5.3-7-6.9-3.9-3.5 52 56.4 87.2 116.4 101.9 174l2.9 11-3.7 1.7c-2 1-4.2 1.8-4.8 1.8-.7 0-2.8-3.9-4.9-8.8-19.7-45.8-63.5-115.7-98.4-157-10.7-12.7-29.3-31.2-35.4-35.3-1.8-1.2-.9-.2 1.8 2.2 11.5 9.9 34.9 36 48.1 53.6C325.8 158.9 357 209 374 242.9c6.7 13.4 14.3 30.2 13.8 30.6-1.8 1.6-9.2 4.5-9.8 3.8-.4-.4-4-5.8-8-11.8-11.7-17.7-28.6-40.8-68-93.1-12.3-16.5-28.1-37.8-35-47.5-23.8-33.5-31.9-44.6-33.6-46-1-.8.2 1.4 2.7 4.8 2.4 3.3 10.3 14.5 17.4 24.7 23.4 33.5 29.8 42.3 61.5 84.6 23.9 31.9 42.9 58 53.3 73.2l8.7 12.6-5.7 3.2-5.6 3.2-9.2-9.3c-8.5-8.7-29-31.1-48.1-52.4-24.7-27.6-51.2-62-68.2-88.5-7.4-11.7-12.6-21.6-16.8-32.5-1.3-3.3-2.3-5.4-2.4-4.7 0 2.2 6.9 19.4 10.6 26.2 5.4 9.8 19.2 30.1 32.6 48.1 22.8 30.7 43.8 55.2 83.1 97.1 8.6 9.2 15.7 16.9 15.7 17.1 0 .3-1.4 1.4-3.2 2.5l-3.2 2-4.5-3.1c-23.3-15.8-47.6-37.4-70-62.2-23.5-26-39.6-46.7-50-64.3-2.4-3.9-4.5-7.2-4.8-7.2-.8 0 6.6 12.9 12 21 29 43.3 74.2 89.2 113.6 115l2.3 1.6-7.4 5.6-7.5 5.6-8-4.2c-24-12.9-51.9-36.6-71.5-60.7-18.8-23.2-34.9-51.8-43.2-76.9-10.5-31.7-13.1-63-6.7-80 4.6-12.1 9.8-17.8 19.4-21.2 7.2-2.6 25.2-1.9 35.2 1.2m551.1 25.1c7.5 2.8 13.5 8.8 16.3 16.2 2.6 7 2.9 21 .6 31.5-11.1 52.8-68.5 122-133.8 161.4-11.4 6.8-36.5 19.1-46.6 22.8l-8.5 3.1-6.4-6.4-6.4-6.4 5.9-3.3c3.2-1.8 13.4-8.4 22.7-14.7 60.8-41.2 122-96 150.6-135.1 5.4-7.2 2.7-4.7-6.2 6-15.4 18.5-42.9 46.5-61.8 62.9-34.1 29.7-84.9 67.5-108.6 80.8l-4.2 2.4-4.8-3.8c-2.7-2-4.7-4-4.5-4.3.2-.4 7.9-7.7 17.1-16.2 31.6-29.5 56.5-52.6 63-58.5 7.7-6.9 33.9-31.7 53-50 25.4-24.3 55.5-55 58.9-60l3.3-5-4.3 5c-6.3 7.2-31.1 31.7-64.4 63.5-14 13.4-15.1 14.4-56 52.5-17 15.9-37.7 35.2-46 43-8.2 7.8-17.6 16.5-20.7 19.4l-5.7 5.3-5.1-3.2c-2.7-1.8-5-3.4-5-3.6s3.3-4.3 7.3-9.1c3.9-4.8 9.9-12.2 13.2-16.3 41.5-51.5 103.6-114 162-162.8l4-3.4-4.9 3.4c-6.8 4.6-28.4 22.7-45.6 38.2-42.1 38-102.3 102.8-130.8 140.7l-6.4 8.6-5.4-3.1c-2.9-1.7-5.3-3.5-5.4-3.9 0-1.5 12.1-22 20.3-34.2 32.6-48.7 80.7-99.1 129.2-135.6 5.2-3.9 9.5-7.3 9.5-7.6 0-1-16.3 10.9-29.2 21.3-28.2 22.7-48.8 42.6-72 69.8-22 25.6-45.2 58.2-54.8 76.7-2.3 4.6-4.4 8.5-4.5 8.7-.2.2-3.5-1.3-7.4-3.3l-7.2-3.6 7.8-15.2c29.4-56.9 76.9-108.9 134.7-147.4 37.6-25 72.1-35.1 93.2-27.2M511.7 265.5c49.6 6.5 95.9 29.2 128.1 63 30.6 32 47.3 71 50.7 118 .6 8.5.5 9.2-1.5 11-4 3.6-8.3 10.7-10.2 16.8-1 3.3-1.6 6.2-1.4 6.4.3.3 1.6-1.7 2.9-4.4 9.7-18.9 32.9-28.8 48.9-21 6.4 3.2 11.1 8 14.2 14.6 1.6 3.6 2 6.6 2 13.6 0 16.5-6.3 32.5-16.9 43-17.9 17.8-41.2 18.6-56.5 1.8l-4.8-5.2.9 4.2c.5 2.3 2.3 6.2 4 8.6l3.1 4.5-3.2 6.5c-14.1 29-45.2 60.5-80 81.3-19.9 11.9-47.2 23-69.5 28.4-17.3 4.1-29.2 5.4-49.7 5.4-45.9 0-84.2-11.2-120.5-35.3-14.3-9.4-36.1-31-45.2-44.7-31.6-47.7-40.7-115.4-23.5-175.4 22.8-79.4 88.9-133.2 174.4-141.9 10.4-1.1 43-.6 53.7.8m-305.1 14.4c41.2 6.1 74.8 21.4 101.2 46.3l5.3 5-2.8 3.2c-1.5 1.7-3.5 4.2-4.3 5.5l-1.5 2.3-6-3.9c-23.9-15.8-55-29.3-86.8-37.7-24.4-6.5-58.3-11.8-73.7-11.5-6.9.2-6.6.3 3.5.9 35.6 2.4 82 13.6 114.5 27.6 13.6 5.8 45 23 46.5 25.4.4.7-6 11.8-8 13.8-.2.3-4.4-1.5-9.2-3.8-46.9-22.6-93.8-36.4-144.8-42.6-14.9-1.7-39.6-1.5-46.5.5-3.4 1-3.4 1 1 .5 38-4.6 99.2 6.8 156 29.2 15.2 5.9 39.9 16.9 41.3 18.3.5.5-.2 2.9-1.6 5.8l-2.6 4.9-8.9-2.2c-4.9-1.2-17.4-3.9-27.8-5.9s-24.5-4.7-31.4-6c-6.9-1.4-29.7-5.4-50.6-9-21-3.6-43-7.4-49-8.5-17.2-3.2-32.4-5.7-38.4-6.3l-5.5-.6 4.5 1c9 2 44.9 8.9 59.5 11.4 48.7 8.4 114.4 20.5 137.5 25.3 9.6 2 9.7 2.1 6 10.4l-2.1 4.8h-20.2c-33.7-.1-60.4-1.7-92-5.6-31.3-3.8-55.3-9.7-73.3-17.9-4.1-1.9-7.4-3.2-7.4-2.9s3.7 2.2 8.3 4.3c9.7 4.5 26.8 10.2 38.7 13 28.9 6.7 86.3 11.6 126.8 10.9 10-.2 18.2-.2 18.2 0 0 1.5-4.5 14-5.4 14.9-.6.6-8.1 2.2-16.6 3.4-21.9 3.3-59.6 3.3-81 .1-18.1-2.8-35.1-6.9-50.5-12.1-13.8-4.7-16.7-4.8-3.8-.1 23.3 8.4 45.7 13.4 72.2 16 20.4 2 48.8.6 70.3-3.5 4.4-.8 8.3-1.5 8.7-1.5s-.4 4.5-1.8 9.9l-2.4 9.9-9.1 1.6c-28.4 5-51.8 4.7-80.2-.9-52.8-10.6-104.8-45.3-114.4-76.3-2.5-8.2-2.5-13.7.1-21.4 8.7-25.9 41.1-43.4 88.4-47.7 13.5-1.3 35.3-.5 51.1 1.8M843 312c44.7 4 85.6 19.1 106.2 39.2 31.3 30.5 15.4 63.2-41.7 86.1-23.1 9.3-47.2 15.3-79.5 19.8-16.8 2.4-58.8 3.4-73.4 1.8-8.2-.9-9.3-1.3-12.9-4.5-6.9-6.3-11.7-7.9-23.7-7.9-7.1.1-11.9.6-14.7 1.7-4.2 1.5-4.3 1.5-4.4-.6 0-1.1-.2-2.8-.3-3.6-.2-.8-.6-5.1-1-9.4-.8-9.1-3.8-24.1-6.6-33.6-1.1-3.5-1.7-6.7-1.4-7s47-.6 103.7-.7c109.5-.2 127.6-.5 140-2.4 10.9-1.6 9-2.2-2.4-.8-6.8.9-41.5 1.3-123.4 1.4-62.7 0-115 .4-116.3.8-2 .5-2.6 0-4.3-4-3.6-8.4-3.6-8.4 7.1-10.5 58-11.4 110.5-16.3 164.5-15.5 32.3.5 46.1 1.6 71.4 5.8 16.2 2.6 17.8 1.9 2.2-1-31-5.7-49.2-7-90.6-6.6-42.3.4-68 2.4-107 8.1-15.1 2.3-48.6 8.8-50.3 9.8-.4.2-3.5-4.9-6.9-11.5l-6.1-11.8 11.1-6.5c21.5-12.4 40.3-20.6 60.7-26.5 31.5-9 69.1-12.8 100-10.1M266.4 472.5c.3 7.7.9 15.4 1.2 17.1.5 2.8.2 3.3-5.5 6.7-3.3 2.1-8 6-10.4 8.8l-4.5 5.1-1.2-5.5c-.7-3.1-1.1-9.1-.8-13.8.7-12.9 5.6-22.1 15.7-29.5 2.5-1.8 4.6-3.2 4.7-3.1s.5 6.5.8 14.2m-26.5 32.8c1.2 8.7 1.4 22 .5 28.9-.6 4.3-.8 4.5-7.9 8.2-4.1 2-9.4 5.5-11.8 7.7l-4.5 3.9-1.1-5c-1.6-7.6-1.3-16.8.8-25.3 2.4-9.1 5-14.5 9.7-19.7 3.7-4 11.3-8.5 12.5-7.2.4.4 1.2 4.2 1.8 8.5m29.1-5.5c0 .5.9 5.9 2 12.1 2.3 12.9 2.3 12.9-4.9 16.6-4 2-18.4 7.5-19.7 7.5-.2 0-.4-2.5-.4-5.5 0-10.6 6.2-21.5 15.9-27.9 5.4-3.6 7.1-4.3 7.1-2.8m489.3 13.1c12.6 13.6 15.2 28.8 8.4 47.6-1.2 3.3-1.6 3.7-2.1 2-1.8-5.4-7.6-15.3-11.5-19.7-2.5-2.8-6.8-6.3-9.8-8-5.9-3.3-6.6-5.2-3.3-9.8 2.5-3.5 9-17 9-18.8 0-2.1 3.2.2 9.3 6.7m-15.7 26.6c5.5 3.2 11.1 9.7 13.9 16 2.3 5 5.2 17.1 4.4 18-.8.8-25-8.3-29.6-11.1-5.8-3.6-11-10.2-11.9-15.1-.6-3.2-.4-3.9 1.7-5.2 1.3-.9 4.2-3 6.4-4.7 3.9-3 4.1-3.1 7.5-1.7 1.9.8 5.3 2.5 7.6 3.8m-531.7 26c.1 11-.3 12-6.3 15.4-2.8 1.6-6.4 4.3-8.1 6l-3 3.2-1.7-9.3c-2.1-11.5-2.2-16.8-.4-23.6 2-7.3 6-13.8 10.9-17.3l4.1-3 2.3 10.3c1.2 5.7 2.2 13.8 2.2 18.3m44.5-16c-1.4 4.5-3 7.2-6.5 10.7-5.7 5.7-10.5 8.2-23.8 12.4l-10.3 3.3.7-5.7c.9-7.4 3.2-11.8 9-17.1 5.4-5 11.7-8 23.5-11.4l8.5-2.5.3 2.1c.2 1.2-.4 4.8-1.4 8.2m528.4 6c6 6.7 6.6 8.9 6.7 21.5 0 8.5-.5 13-1.9 17.4l-1.8 5.9-1.6-3.4c-.9-1.8-4.9-6.5-8.8-10.3l-7.1-7.1.7-5.8c.5-3.2 2.1-9.3 3.5-13.5 1.5-4.2 2.9-8.3 3.1-9 .5-1.8 3.4-.1 7.2 4.3m-598.3 25.7c1 4 2 12 2.2 17.8l.4 10.5-5.5 3.1-5.5 3.2-1.7-5.7c-2.3-7.6-3-19.9-1.4-24.6 1.2-3.6 7.4-11.5 9-11.5.4 0 1.6 3.3 2.5 7.2m567.2-3.1c10.4 3.7 14.1 5.8 20.6 11.8 5.9 5.5 8.4 10 9.3 17.1.6 4.8.5 5.2-1.2 4.7-1-.3-4.8-1.3-8.3-2.2-19-4.8-27.7-13.3-29.6-28.8-.4-3.1-.5-5.7-.2-5.7s4.5 1.4 9.4 3.1m-524.9 3.7c.6 3.7-1.7 9.7-5.3 13.9-4.2 5-10.5 8.1-20.7 10.3-8.5 1.8-9.4 1.4-8.2-3.8 2.6-10.5 10.1-16.8 25.1-21.1 7.9-2.3 8.7-2.2 9.1.7m443.7 17.5c54.1 46.5 91.3 125.4 86.4 183.4-3.5 41.6-24.8 55.1-60.4 38.4-39.9-18.7-84.4-63.7-108.8-110.1-10.3-19.5-17.7-41.1-19.2-55.6l-.5-5.9 11.7-5.7c22.5-10.8 49.4-30.5 66.4-48.7l8.4-8.9 2.5 1.8c1.4 1 7.5 6.1 13.5 11.3m130.4-5.7c2.3 2.6 4.6 6.5 5.2 8.8 1.6 5.7.6 19.2-1.8 24.7l-1.9 4.4-1.8-3.8c-1-2-4.3-5.9-7.2-8.6-3-2.7-5.4-5.3-5.4-5.8 0-1.8 7.5-24.3 8.1-24.3.4 0 2.6 2.1 4.8 4.6m-493.4 4.1c6 8.3 26.3 27.4 37.4 35.1 5.3 3.7 13.7 8.7 18.5 11.2 10.1 5.2 9.7 3.5 4.7 20.9-19.7 68.4-72.3 134.8-119.7 151.1-15.3 5.3-28.4 0-35.3-14.3-4.4-9.1-6-18.1-5.6-32.2.7-27.2 8.9-56.8 25-90.3 13.1-27.1 28.9-50.5 45.5-67.3 9-9.1 22.3-19.9 24.5-19.8.6 0 2.8 2.5 5 5.6M174 630.6c0 2.8-.7 7.2-1.6 9.8l-1.6 4.7-2.7-2.5c-1.5-1.4-4.1-2.9-5.9-3.2-3.2-.6-3.2-.7-3.2-6.8 0-8.4 1.5-13.1 5.7-17.7l3.6-4 2.9 7.3c1.7 4.6 2.8 9.2 2.8 12.4m-43.2-17.1c3.2 2.3 6.9 9.2 10.8 20 1.9 5.3 3.4 9.9 3.4 10.3-.1.4-1 1.8-2.1 3.1-1.8 2.1-2.1 2.2-3.7.9-1.8-1.6-10.4-6.2-14.8-7.9-4.8-1.8-2 1.2 6.6 7 8.7 5.8 10.9 9.1 7.3 10.6-1 .4-6.4.9-12 1.2-12.2.7-18.4-1-20.8-5.7-3-5.8-1.4-11.5 7.7-26.8 8.1-13.8 12-16.6 17.6-12.7m73.8 2.2c-1.4 5.9-5.9 13.4-10.5 17.6-4.6 4-16.8 11.4-17.6 10.5-.2-.2.2-2.2 1-4.3.8-2.2 1.4-7.2 1.5-11.2 0-6.7.2-7.3 2.8-9.1 1.5-1 5.4-2.7 8.7-3.7 3.3-.9 6.5-1.9 7-2 .6-.2 2.5-.4 4.4-.4 3.1-.1 3.3.1 2.7 2.6m655.3 2.1c3.5 3.7 9.8 14.4 13.3 22.7 3.5 8.2 1.5 13.6-6.4 17.6-5 2.6-15.6 4.9-22.5 4.9-4.6 0-5.3-.3-5.3-1.9 0-1.1-.2-2.6-.5-3.3-.4-.9 2.7-4.1 8.5-8.9 4.9-4.1 9-7.7 9-8.1 0-1.8-7.7 2.1-14.8 7.5l-5.3 4-2.3-2.2-2.4-2.2 2-6.7c4.9-16.5 12.5-27.2 19.5-27.2 2.9 0 4.3.8 7.2 3.8m-78.4.8c5.7 1.5 11.8 6.1 14.1 10.6 1.5 2.9 4.4 11.4 4.4 13 0 .5-2.8.8-6.2.8-13.6-.1-23.6-8.7-25.4-21.8l-.6-5 4.3.5c2.4.2 6.7 1.1 9.4 1.9m35.3 15.3c.7 1.9 1.2 5.2 1.2 7.5 0 3.7-.4 4.3-3.7 6.1-2.1 1.1-4.9 3.7-6.2 5.7-1.9 3-3.1 3.8-5.3 3.8-3.6 0-7.5-2-10.8-5.5l-2.5-2.7 6.2.8c7.3.8 8.8 0 9.8-5.4.4-2 2-6.9 3.7-10.9 3-7.2 3.1-7.2 4.8-5 .9 1.2 2.2 3.7 2.8 5.6m-652.9 13.7c1.5 1.9 2.1 4.1 2.1 7.6 0 4.1-.5 5.4-2.9 7.9-7.1 7-18.6.5-16.7-9.5 1.4-7.5 13.2-11.5 17.5-6m666.3 9.4c3.8 3.8 4 4.3 3.5 8.7-.7 6.3-4 9.3-10.3 9.3s-11.4-4.7-12.1-11.1c-.4-3.8-.1-5 2.2-7.7 2.4-2.8 3.3-3.2 7.7-3.2 4.5 0 5.4.4 9 4m-633.7 1.4c10 3.4 10.8 8 3.8 20.4-7.1 12.6-13.6 19.2-18.8 19.2-3.3 0-10.5-8.2-15-17.3l-4.5-9 3.2-2.3c1.7-1.3 3.5-2.4 3.9-2.4 1.2 0 10.6 7.8 12.3 10.1 2.3 3.4 2.9 1.7 1-3-1.7-4.4-7.4-10.1-10.1-10.1-1.1 0-1.4-.6-.9-2.3.3-1.2.6-2.7.6-3.4 0-.6.8-1.4 1.8-1.7 3.4-1 17.8.2 22.7 1.8m-50.1 14c-.3 1.2-1.7 4.5-3 7.5s-2.2 5.6-1.9 5.9c.6.7 4-3.4 7.3-8.8 2-3.4 3.2-4.4 4.8-4.2 2.1.3 2 .5-1.6 11.6-6.3 19-12.1 28-20.8 31.8-7.4 3.3-15.7 2.4-22.5-2.4l-3-2.1 4.2-1.3c5.8-1.7 10-5.2 14.9-12.5 3.8-5.6 5.4-9.7 3.5-8.7-9.9 5.1-16.5 5-24.3-.3-5.3-3.6-13.1-13-9.4-11.4 1 .4 5.2 1 9.1 1.3 6.2.3 8.8-.1 17-2.7 5.4-1.7 12.5-4.7 15.8-6.6l6-3.4 2.3 2.1c1.5 1.5 2 2.8 1.6 4.2m281.1-5.4c18.7 4.5 65.5 5.3 81 1.4 2.3-.6 2.6 0 5.9 10.8 8.6 27.5 11.9 49.5 11.9 79.8 0 38.7-5.9 67.2-19.6 94.5-17.6 35.1-44.3 50.9-67.7 39.9-20-9.4-34.8-34.9-41.6-71.9-2.6-13.8-2.7-58.6-.2-75.2 4.2-27.8 11.2-52.1 21-73.6 3.3-7.2 3.3-7.1 9.3-5.7m379.1 3.4 2 4.4-2.8 1.6c-4.3 2.6-7.9 8-8.5 12.8l-.5 4.3 3.6-5.2c2-2.8 5.1-6.3 6.9-7.7 3.3-2.5 3.5-2.6 6.7-1 3 1.5 3.2 1.9 2.6 5.4-1.1 7.2-4.6 16.8-7.9 21.7-2.6 3.9-3.8 4.9-6.4 5.1-9.3.9-30.3-18.3-30.3-27.7 0-7.6 5.5-11.9 20.5-16.2 9.9-2.9 11.7-2.5 14.1 2.5m49.9 11.5c11.9 9 21.2 11.4 28.3 7.1 3.9-2.4 4.1-1.3 1.3 5.2-4.5 10.7-15.5 13.8-25.3 7.3-4.6-3.1-5.5-1.8-2.6 3.7 3.1 6 3.2 17.5.1 23.4-2.8 5.3-9.7 12-14.7 14.5-5.2 2.5-5.5 2.4-2.4-.9 4.6-4.9 6.1-9.2 6.6-18.5.3-5.6.1-8.7-.6-8.7-.6 0-1.3 1.9-1.7 4.2-2.3 15.4-10.5 24.8-21.4 24.8h-4.2l3.1-3.8c1.7-2.1 3.9-6.2 5-9 2.8-7.3 2.7-22.1-.1-32.8-3.4-12.9-3.8-15.2-2.3-15.8.8-.3 2.6 2.4 5.1 7.6 4.3 9.3 5.5 8.3 2.7-2.3-1.4-5.6-1.5-7.2-.5-8.2 1.3-1.3 2-.7 8.4 7.3l2.8 3.5-.7-3c-.3-1.7-1.8-5.3-3.2-8.1-1.4-2.9-2.2-5.9-1.9-6.8.6-1.5 1.2-1.4 5.4.8 2.7 1.4 8.4 5.2 12.8 8.5m-692.4 16.9c-2.4 10.8-11.6 22.3-20.4 25.7-2.6 1-5 1.6-5.3 1.3s1.9-3.9 4.8-8c7.5-10.4 12.9-21.9 15.3-32.3.7-2.9.7-2.9 3.6 3.3 2.4 5.3 2.7 7 2 10"/><path d="M517.5 333.9c-6.6 1.7-11.5 6.7-11.5 11.8 0 2.2.2 2.2 9.3 1.6q28.05-1.8 42.3 20.4c4.3 6.8 5.9 6.9 5.1.4-1.4-11.7-11.7-25.5-23.2-31.2-6.8-3.3-16-4.6-22-3M377.3 341c-3.4 1.7-8.1 5.3-10.7 8-7.2 7.7-13.1 21.7-11.2 26.7.6 1.3 1.3.7 3.5-3.2 3.4-6 12.2-14.5 17.9-17.4 5.6-2.8 15-4.9 20-4.5 4 .4 4.2.3 4.2-2.4 0-9.4-12-13-23.7-7.2m134.9 51.2c-7.5 1.1-12.8 4.2-19.8 11.3-10 10.2-15.6 24.4-17 43.3-1.2 15.7 2.8 27.5 12.2 36.1 3.1 2.8 6 5.1 6.5 5.1s-1.3-2.8-4.2-6.2c-2.8-3.4-6-8.2-7.1-10.7-4.7-11-4.2-30.1 1.2-43.8 5.3-13.9 12.5-22.3 22.7-27 4.7-2.2 6.6-2.5 12.3-2.1 5.5.4 7.6 1.1 11.5 3.8 9.3 6.4 14.5 18.8 14.5 34.4l-.1 9.1-2.4-4.6c-4.5-8.7-11.9-12.2-20.6-9.9-4.3 1.2-4.4 1.4-2.4 5 1.9 3.3 1.9 8-.1 10.8-2.1 3-6.8 3-8.9-.1-1.3-1.9-1.7-2-2.5-.7-3.1 4.7-4.4 17.9-2.6 25.1.8 3.1 2.6 6.3 4.7 8.5 1.8 1.9 2.8 3.4 2.3 3.4-1.4 0-9.2 6.8-10.4 9.1-.8 1.4.7.8 5-2 6.1-3.9 17.4-8.5 29.2-11.8 6.7-1.8 32.3-2.5 42.3-1.1l5 .7-3.8-2c-7.6-4-18.4-6.1-28-5.4l-8.8.6 1.5-3.5c1.7-4.1 5.1-19.6 6.1-27.6 2.2-18.6-7.1-38.9-20.9-45.4-6.2-2.9-10.4-3.5-17.4-2.4m-130.6 2.4c-6.6 2.1-14.8 10.3-18.5 18.6-7.3 16.1-8 38.9-1.7 53.2l2.3 5.1h-12.1c-7.8 0-13.7.5-16.6 1.5l-4.5 1.4 12.5.7c13.5.7 17 1.4 29.9 6 8.9 3.1 10.9 3.3 6.4.4-5.3-3.4-8.5-7-11.9-13.8-6.4-12.6-7.9-24.1-4.9-38.1C366.4 411 377.2 399 390 399c12 0 21.5 10 25.4 26.8l1.4 6.1-2.4-1.5c-3.7-2.5-9.4-3.4-13.7-2.3-4.6 1.2-5.3 2.8-3.3 6.8 2 3.8 2 8 0 10.9-1.9 2.8-4.1 2.8-7.1 0-3.7-3.5-4.8-1.3-4.8 9.5 0 9.8 1.7 14.9 6.4 19.1l2.1 1.9-3.2 3.5c-8.5 9.8-10.8 23.8-5.4 34.1 7.7 14.9 25.3 24.2 43.1 22.8 14.9-1.1 27.5-9.6 30.1-20.2l.7-3-5 4.3c-17 14.2-40.6 14.4-55.4.5-6.6-6.1-8.9-10.8-8.9-17.6 0-10.3 8-21 19.8-26.5 5-2.4 6.9-2.7 15.2-2.7 11.9.1 18.3 2.4 26.3 9.6 4.2 3.7 6.7 7.1 9.4 12.7 4.1 8.6 5.3 7.8 2.9-1.8-2.8-11-10.8-19.6-22.4-24.2-4.5-1.7-7.8-2.2-15.5-2.2-8.2-.1-9.6-.3-9.1-1.6 4.2-10 5.7-30 3-41.3-3-12.7-9.6-22.5-18-26.9-5.2-2.7-13.8-3.2-20-1.2m327.1 84.8c-10 3.6-20.7 15.1-20.7 22.3 0 1.8.8 1.4 5-3.1 2.7-2.9 6.5-6.1 8.4-7.1l3.5-1.9 2 2.5c5.2 6.2 5.2 14.9.2 23.1-1.8 2.8-3 5.3-2.7 5.5 1 1 7.9-6.4 10.4-11.1 3.7-7.2 3.6-14.5-.1-20.9l-2.8-4.7h4.6c4.8 0 9.2 1.7 11.4 4.4 1.8 2.1 3 1.2 2.4-1.7-1.8-7.4-11.8-10.7-21.6-7.3"/><path d="M517.5 513.5c-7.1 1.6-11.5 3.2-11.5 4.2 0 .5 4.7.8 10.3.8 15.2 0 15.6.7 5.3 10.4-16.3 15.3-35.6 25.2-59.8 30.8-11.5 2.6-35.7 2.3-47.3-.5-16.1-4-36.2-15.9-44.9-26.6-4.4-5.3-4.2-7 1.1-9.3l3.8-1.6-3.5-1.5c-9.8-4-23.7 3.4-25.6 13.8l-.7 3.5 3.4-3.2c1.9-1.8 5.1-3.9 7.1-4.7l3.6-1.6 2.6 4.3c3 5.2 14.6 16.3 22.2 21.4 4.4 2.9 6.1 4.8 7.9 9 1.3 2.8 5.2 10 8.6 16 3.5 5.9 8.6 15.2 11.5 20.5 14.2 26.3 24.5 35 41.9 35.2 26.5.3 47.3-18.6 68.4-62.4 7.1-14.8 16.8-38.9 18.7-46.3.6-2.8.8-2.9 5.3-2.2 2.5.4 6.8 1.5 9.5 2.6 2.8 1 5.2 1.6 5.5 1.4.8-.8-5.1-6.5-9.4-9.1-8.1-4.7-24.1-7.1-34-4.9M499 557.7c-5 6.6-13.6 14.3-18.8 17.1-12.7 6.8-29.1 9.7-40.2 7.1-6.8-1.5-16.3-6.6-20.4-10.8l-3.6-3.7 7.2 1.2c9.7 1.7 25.3 1.7 36 0 9.8-1.6 25.1-6.3 34.2-10.6 7.7-3.6 8.2-3.6 5.6-.3m2.8 32.3c1.1 1.8.9 2.7-1.1 6.1-6.8 11.3-18 22.2-28.5 27.4-11.3 5.7-25 5.9-30.4.5-1.5-1.6-2.8-3.7-2.8-4.8 0-5.3 9.6-13.6 20.8-18 7.7-3 8.3-2.9 6.9.8-1.7 4.4-.4 4.5 3.9.5 6.1-5.6 13.4-10.3 19.4-12.5 7.1-2.5 10.2-2.5 11.8 0"/><path d="M401 619.2c0 .7.6 3.8 1.4 6.9 2.7 11.6 9.4 19.3 22.1 25.4 21.5 10.4 50.2 8.1 62.4-4.9 1.9-2.1 2.1-2.6.8-2.6-.9 0-1.9.4-2.2 1-.3.5-4.3 2.2-8.8 3.6-7.1 2.4-9.9 2.8-20.2 2.8-13.3 0-21-1.6-30.4-6.4-10.6-5.3-21.1-16-22.6-23.1-.7-3-2.5-5-2.5-2.7m408-285.6c-36.5 2.5-71.4 9-96.9 17.9-10.1 3.5-28.7 11.6-32.6 14.2-4 2.6.6 1.2 11.6-3.8 34.9-15.6 77.6-24.6 126.4-26.8 17.5-.8 42.4-.6 55.5.4 10.7.9 17.3 1.5 21.5 2.1 2.2.4 3.7.3 3.4 0-2.5-2.6-67.4-5.5-88.9-4m-114.5 73.3c.7 1.2 19.3 5.5 35 8.1 12 1.9 34.3 4.4 50.5 5.5 4.7.3 12.1.8 16.5 1.1 13.3 1.1 79.2.6 91-.5 13.4-1.4 32.7-4.2 32.2-4.8-.2-.2-5.6.3-11.8 1.1-54.6 7.2-158.6 2.4-205.1-9.5-8.8-2.2-9.1-2.2-8.3-1m4.1 19.9c1.7 1.6 15.8 6.3 27.4 9.2 29.2 7.3 51.8 9.5 88 8.6 14-.3 27.5-1 30-1.5 3.1-.6.9-.7-7-.3-20.4 1.2-56.5.6-71.5-1.3-21-2.5-43.9-7.6-60.9-13.5-6.6-2.2-7.4-2.4-6-1.2"/></svg>